<?xml version="1.0" encoding="utf-8"?>
<svg viewBox="0 92.858 676.703 100.876" xmlns="http://www.w3.org/2000/svg">
  <defs>
    <clipPath id="clip-path" transform="translate(-4.79 88.08)">
      <polygon class="cls-1" points="-7.35 8.05 776.5 7.15 776.5 74.71 -7.35 77.03 -7.35 8.05"/>
    </clipPath>
    <style>.cls-1{fill:none;}.cls-2,.cls-4{fill:#0a45a3;}.cls-3{clip-path:url(#clip-path);}.cls-4{font-size:11.5px;font-family:ArialMT, Arial;}.cls-5{font-size:22px;fill:#2b4a22;font-family:SegoeUI-Bold, Segoe UI;font-weight:700;letter-spacing:0.01em;}.cls-6{letter-spacing:0.02em;}.cls-7{letter-spacing:-0.01em;}.cls-8{letter-spacing:0em;}.cls-9{letter-spacing:0em;}.cls-10{letter-spacing:0.01em;}</style>
  </defs>
  <polygon class="cls-2" points="18.05 99.89 39.05 99.89 43.97 115.44 12.86 115.44 18.05 99.89"/>
  <polygon class="cls-2" points="12.21 117.39 27.33 117.39 22.92 136.47 5.88 136.47 12.21 117.39"/>
  <polygon class="cls-2" points="29 117.39 44.33 117.39 50.75 136.47 33.25 136.47 29 117.39"/>
  <polygon class="cls-2" points="5 138.72 51.42 138.72 56.42 154.39 36.92 154.39 34.92 147.05 20.83 147.05 18.75 154.39 0 154.39 5 138.72"/>
  <polygon class="cls-2" points="58.75 99.39 78.17 99.39 91.83 115.39 58.75 115.39 58.75 99.39"/>
  <polygon class="cls-2" points="94 99.89 94 115.39 112.58 115.39 112.58 99.72 94 99.89"/>
  <polygon class="cls-2" points="58.75 117.39 112.58 117.39 112.58 136.47 58.58 136.47 58.75 117.39"/>
  <rect class="cls-2" x="58.75" y="138.72" width="18.25" height="15.67"/>
  <polygon class="cls-2" points="79.83 138.72 112.58 138.72 112.58 154.39 93.17 154.39 79.83 138.72"/>
  <g class="cls-3">
    <path class="cls-2" d="M123,29.3h20.83A18.36,18.36,0,0,0,141,38.84a22.16,22.16,0,0,0,2.25,9.55H122.37a33.73,33.73,0,0,1-1.17-9.55A22.56,22.56,0,0,1,123,29.3" transform="translate(-4.79 88.08)"/>
    <path class="cls-2" d="M123.7,27.3s6.17-17.83,25.84-17.83S175,27.3,175,27.3H155.79a6.24,6.24,0,0,0-4.92-2.16,7.71,7.71,0,0,0-5.33,2.16Z" transform="translate(-4.79 88.08)"/>
    <rect class="cls-2" x="145.75" y="123.05" width="25" height="13.42"/>
    <path class="cls-2" d="M123.12,50.64s6.67,17.83,26.33,17.83,26-17.83,26-17.83H155.7a6.21,6.21,0,0,1-4.91,2.16,7.72,7.72,0,0,1-5.34-2.16Z" transform="translate(-4.79 88.08)"/>
    <path class="cls-2" d="M235.45,27.3S228.7,9.47,208.7,9.47s-27.08,17.92-27.08,17.92Z" transform="translate(-4.79 88.08)"/>
    <path class="cls-2" d="M235.45,50.68S228.7,68.47,208.7,68.47s-27.08-17.88-27.08-17.88Z" transform="translate(-4.79 88.08)"/>
    <path class="cls-2" d="M181,29.47a27.38,27.38,0,0,0-2,9.33,24.76,24.76,0,0,0,2,9.5h21.66S198,44.55,198,39.22s5.37-9.75,5.37-9.75Z" transform="translate(-4.79 88.08)"/>
    <path class="cls-2" d="M236.08,29.47a31.3,31.3,0,0,1,1.7,9.33,27.62,27.62,0,0,1-1.7,9.5H214.41s4.46-3.75,4.37-9.08-5.12-9.75-5.12-9.75Z" transform="translate(-4.79 88.08)"/>
    <rect class="cls-2" x="233" y="100.47" width="41.58" height="15"/>
    <rect class="cls-2" x="244.17" y="117.55" width="18.5" height="18.83"/>
    <rect class="cls-2" x="244.17" y="138.64" width="18.5" height="15.75"/>
    <rect class="cls-2" x="279" y="100.47" width="41.58" height="15"/>
    <rect class="cls-2" x="290.17" y="117.55" width="18.5" height="18.83"/>
    <rect class="cls-2" x="290.17" y="138.64" width="18.5" height="15.75"/>
    <rect class="cls-2" x="324.83" y="117.55" width="18.5" height="18.83"/>
    <rect class="cls-2" x="324.83" y="138.64" width="18.5" height="15.75"/>
    <rect class="cls-2" x="324.83" y="100.47" width="18.5" height="15"/>
  </g>
  <text class="cls-4" transform="matrix(1, 0, 0, 1, 650.23999, 152.479996)" style="white-space: pre;">INC.</text>
  <rect class="cls-2" x="515.49" y="117.59" width="18.5" height="18.83"/>
  <rect class="cls-2" x="515.49" y="138.67" width="18.5" height="15.75"/>
  <rect class="cls-2" x="515.49" y="100.09" width="18.17" height="15"/>
  <rect class="cls-2" x="540.16" y="117.34" width="18.5" height="18.83"/>
  <rect class="cls-2" x="540.16" y="138.42" width="32.5" height="15.92"/>
  <polygon class="cls-2" points="540.16 100.34 558.32 100.34 558.49 115.09 540.32 115.09 540.16 100.34"/>
  <rect class="cls-2" x="577.32" y="117.5" width="18.5" height="18.83"/>
  <rect class="cls-2" x="577.32" y="138.59" width="32.5" height="15.92"/>
  <rect class="cls-2" x="577.32" y="100.01" width="18.17" height="15"/>
  <polygon class="cls-2" points="464.74 117.84 483.24 117.84 483.24 120.27 509.74 120.16 509.74 133.72 483.24 134 483.24 136.42 464.74 136.42 464.74 117.84"/>
  <rect class="cls-2" x="464.74" y="138.67" width="45.5" height="15.75"/>
  <rect class="cls-2" x="464.74" y="100.34" width="45.17" height="14.75"/>
  <path class="cls-2" d="M418.19,12h31.09s7.41-.16,12.25,5.17,4,9.83,4,9.83H445.64s0-.33-.87-1.16a2.22,2.22,0,0,0-1.83-.67h-7.08l0,1.83H418.22Z" transform="matrix(1, 0, 0, 1, -4.79, 88.080002)"/>
  <path class="cls-2" d="M445.79,29.75h19.8s-.4,6.09-3.4,9.75a12.49,12.49,0,0,1-8.25,4.5l3,4.34H418.19V29.75h17.92l.07,6.42h7a2.79,2.79,0,0,0,2.08-1.67c.84-1.58.52-4.75.52-4.75" transform="matrix(1, 0, 0, 1, -4.79, 88.080002)"/>
  <rect class="cls-2" x="413.4" y="138.67" width="17.5" height="15.75"/>
  <polygon class="cls-2" points="434.15 138.67 453.32 138.67 462.9 154.42 442.57 154.42 434.15 138.67"/>
  <path class="cls-2" d="M389,27.06A6.3,6.3,0,0,0,382.19,21c-6.67.08-6.5,6.08-6.5,6.08H360s-1-16.5,21.84-16.5c22.5,0,21.08,16.5,21.08,16.5Z" transform="matrix(1, 0, 0, 1, -4.79, 88.080002)"/>
  <path class="cls-2" d="M389,47.89s-.16,4.67-6.83,4.59-6.5-4.59-6.5-4.59H359s1.34,16.5,22.84,16.51c22.58,0,24.08-16.51,24.08-16.51Z" transform="matrix(1, 0, 0, 1, -4.79, 88.080002)"/>
  <path class="cls-2" d="M379.19,29.14s-.25.17.33.84,1.09.33,1.09.33H385V42.73l-5.83.33s-.48-.31-1.42.67L376,45.56H359a15.23,15.23,0,0,1,2.59-5.42,8.49,8.49,0,0,1,3.83-2.54,22.28,22.28,0,0,1-3.75-3.54A11.9,11.9,0,0,1,360,29.14Z" transform="matrix(1, 0, 0, 1, -4.79, 88.080002)"/>
  <polygon class="cls-2" points="382.99 119.39 403.65 119.39 403.65 130.56 401.15 130.56 401.15 133.64 385.24 133.64 385.24 130.98 382.99 130.98 382.99 119.39"/>
  <polygon class="cls-2" points="630.07 113.5 630.57 113.5 638.49 100 657.99 100 648.66 115 611.49 115 601.57 100 622.24 100 630.07 113.5"/>
  <polygon class="cls-2" points="613.16 117.5 646.74 117.5 639.32 130 639.32 135.92 620.82 135.92 620.82 130.34 613.16 117.5"/>
  <rect class="cls-2" x="620.82" y="138.59" width="18.5" height="15.92"/>
  <line class="cls-1" x1="640.86" y1="1.44" x2="634.5" y2="196.4"/>
  <text class="cls-5" transform="matrix(0.79, 0, 0, 1, 150.080002, 180.770004)" style="white-space: pre;"><tspan>BUILDERS  •  DEVELOPERS  •  CONSTRUCTION MANAGERS</tspan></text>
</svg>